<?xml version="1.0" encoding="UTF-8"?>
<svg width="20px" height="20px" viewBox="0 0 20 20" version="1.1" xmlns="http://www.w3.org/2000/svg" xmlns:xlink="http://www.w3.org/1999/xlink">
    <!-- Generator: Sketch 48.2 (47327) - http://www.bohemiancoding.com/sketch -->
    <title>icon-user-arrow-down</title>
    <desc>Created with Sketch.</desc>
    <defs></defs>
    <g id="02-我的会员-我的收藏" stroke="none" stroke-width="1" fill="none" fill-rule="evenodd" transform="translate(-1397.000000, -29.000000)">
        <g id="Group-4" transform="translate(1275.000000, 29.000000)" fill="#FFFFFF" fill-rule="nonzero">
            <g id="箭头-下" transform="translate(122.000000, 0.000000)">
                <path d="M10.1005702,15 C9.29600835,15 8.5920167,14.7018103 7.98859527,14.105431 L2.25609184,7.7440515 C1.85381088,7.34646528 1.95438112,6.75008595 2.35666206,6.35249973 C2.75894301,5.9549135 3.36236442,6.05431005 3.76464537,6.45189628 L9.59771905,12.8132758 C9.69828928,12.9126724 9.89942976,13.0120689 10.1005702,13.0120689 C10.3017107,13.0120689 10.5028512,12.9126724 10.7039916,12.7138792 L16.2353546,6.35249973 C16.6376356,5.9549135 17.241057,5.85551696 17.6433379,6.25310317 C18.0456189,6.6506894 18.1461891,7.24706872 17.7439082,7.64465495 L12.2125452,14.0060345 C11.709694,14.7018103 11.0057024,15 10.1005702,15 C10.2011405,15 10.1005702,15 10.1005702,15 Z" id="Shape" transform="translate(10.000000, 10.500000) scale(1, -1) translate(-10.000000, -10.500000) "></path>
            </g>
        </g>
    </g>
</svg>