<?xml version="1.0" encoding="UTF-8"?>
<svg width="24px" height="24px" viewBox="0 0 24 24" version="1.1" xmlns="http://www.w3.org/2000/svg" xmlns:xlink="http://www.w3.org/1999/xlink">
    <!-- Generator: Sketch 48.2 (47327) - http://www.bohemiancoding.com/sketch -->
    <title>211铃铛</title>
    <desc>Created with Sketch.</desc>
    <defs></defs>
    <g id="02-我的会员-我的收藏" stroke="none" stroke-width="1" fill="none" fill-rule="evenodd" transform="translate(-1519.000000, -27.000000)">
        <g id="211铃铛" transform="translate(1519.000000, 27.000000)" fill="#CED1E1" fill-rule="nonzero">
            <g id="Group-9">
                <path d="M12,23.856383 C13.3191489,23.856383 14.3404255,22.8351064 14.3404255,21.5159574 L9.65957447,21.5159574 C9.65957447,22.8351064 10.6808511,23.856383 12,23.856383 Z M19.6808511,16.2393617 L19.6808511,10.1542553 C19.6808511,6.49468085 17.0851064,3.43085106 13.7021277,2.62234043 L13.7021277,1.85638298 C13.7021277,1.00531915 13.2340426,0.239361702 12.4255319,0.0691489362 C11.2553191,-0.207446809 10.2978723,0.686170213 10.2978723,1.83510638 L10.2978723,2.64361702 C6.91489362,3.43085106 4.31914894,6.49468085 4.31914894,10.1542553 L4.31914894,16.2393617 L2,18.6223404 L2,19.8138298 L22,19.8138298 L22,18.6223404 L19.6808511,16.2393617 Z" id="Shape"></path>
            </g>
        </g>
    </g>
</svg>