<?xml version="1.0" encoding="UTF-8"?>
<svg width="30px" height="30px" viewBox="0 0 30 30" version="1.1" xmlns="http://www.w3.org/2000/svg" xmlns:xlink="http://www.w3.org/1999/xlink">
    <!-- Generator: Sketch 48.2 (47327) - http://www.bohemiancoding.com/sketch -->
    <title>icon-user</title>
    <desc>Created with Sketch.</desc>
    <defs></defs>
    <g id="02-我的会员-我的收藏" stroke="none" stroke-width="1" fill="none" fill-rule="evenodd" transform="translate(-1216.000000, -24.000000)">
        <g id="个人-(8)" transform="translate(1216.000000, 24.000000)" fill="#CED1E1" fill-rule="nonzero">
            <g id="Group-5">
                <path d="M15.1209256,28.5644817 C17.7522895,28.5644817 20.1999269,27.7972888 22.2731926,26.491216 C21.5144558,26.2275415 20.7026766,26.0076846 19.8516921,25.8424076 C18.0966808,25.5003226 17.2310904,24.4709927 17.1257744,22.6045154 C17.1226994,22.57146 17.1119372,22.4868997 17.1034812,22.4184827 C17.069657,22.1494271 17.0189208,21.7435374 16.9966277,21.3730094 C16.9697221,20.9225335 16.912836,19.9846825 17.7230778,19.5772554 C17.7353775,19.5664932 17.8383874,19.4657895 17.9367848,19.105255 C18.0359511,18.7439517 18.0774625,18.3150002 18.107443,18.0013582 C18.1766287,17.2726018 18.4856583,16.8082887 18.711665,16.4692786 C18.7777758,16.3693437 18.8408117,16.2755586 18.8938541,16.180236 C18.8938541,16.180236 18.8946228,16.1786986 18.8946228,16.1786986 C18.8946228,16.1786986 18.8953916,16.1779298 18.8953916,16.1779298 C19.0860367,15.8404572 19.2044212,15.4068933 19.3304929,14.94873 C19.3497112,14.8772381 19.3696982,14.8057462 19.3896852,14.7342543 C19.3896852,14.7342543 19.3896852,14.7334856 19.3896852,14.7334856 C19.3896852,14.7334856 19.3896852,14.7327168 19.3896852,14.7327168 C19.3896852,14.7327168 19.4096722,14.6635311 19.4096722,14.6635311 C19.4627146,14.472886 19.6249167,13.8994131 19.612617,13.6933934 C19.5995486,13.6465009 19.5518873,13.5388786 19.5172944,13.4589307 C19.3889164,13.1683506 19.2136459,12.7701483 19.2136459,12.2673986 C19.2136459,11.8115416 19.3066623,11.3872024 19.3889164,11.012062 C19.4350403,10.7998924 19.4796266,10.6000226 19.4973074,10.4332081 C19.5834052,9.64525949 19.5572684,8.89959105 19.4212031,8.21618979 C19.2782193,7.50357679 18.8861668,6.96623426 18.1858535,6.5257518 C17.5670256,6.13600553 16.7414092,5.83927562 15.587545,5.59251315 C15.3738379,5.54715808 15.145525,5.52409616 14.9087561,5.52409616 C13.6295888,5.52409616 12.11519,6.20442252 11.14044,7.21684036 C10.7706807,7.60197426 10.211045,8.18467186 10.1549277,8.62054195 C10.0734423,9.25243829 10.0818983,10.0334683 10.1756834,10.6599835 C10.2141199,10.9098209 10.2410255,11.1542771 10.2679311,11.3902773 C10.2856118,11.5447921 10.3017552,11.6908509 10.3209735,11.8353722 C10.327892,11.8607403 10.3463415,11.909939 10.35941,11.9476068 C10.4585762,12.2212748 10.6246219,12.6794381 10.4754882,13.2398425 C10.4754882,13.2398425 10.4747195,13.2421487 10.4747195,13.2421487 C10.4747195,13.2421487 10.4739508,13.2452236 10.4739508,13.2452236 C10.4009214,13.5127418 10.2863806,13.7226052 10.202589,13.8755825 C10.1810645,13.9155565 10.1610775,13.9532243 10.1464717,13.9816673 C10.1464717,13.9816673 10.1457029,13.982436 10.1457029,13.982436 C10.1457029,13.982436 10.1449342,13.9839735 10.1449342,13.9839735 C10.1134162,14.0485468 9.98119462,14.4259934 10.5339117,15.5698641 C10.689964,15.8888872 10.8406351,16.1371871 10.9959187,16.3270635 C11.550942,17.004315 11.5732352,17.600081 11.5924534,18.1258925 C11.6062906,18.5010329 11.6685577,18.8915479 11.7631115,19.1951964 C11.8699651,19.5388189 11.989887,19.681034 12.0244798,19.7056333 C12.0244798,19.7056333 12.0252486,19.7056333 12.0252486,19.7056333 C12.9600247,20.1760963 12.7932102,21.2623123 12.6171709,22.4123328 C12.6064087,22.4845935 12.5925716,22.5737662 12.5871905,22.6137402 C12.5802719,22.7590302 12.5756595,22.8966329 12.5710471,23.0296233 C12.5364543,24.0497284 12.4903305,25.4465115 10.4624198,25.8424076 C9.59298583,26.0115283 8.7642945,26.2352288 7.99325799,26.5065906 C10.0611426,27.8026699 12.4995552,28.5644817 15.1209256,28.5644817 Z M15.1209256,1.65892006 C7.69114697,1.65892006 1.66814483,7.68192222 1.66814483,15.1117009 C1.66814483,19.3981412 3.6799121,23.2079687 6.80326345,25.6717495 C7.1491921,25.5372217 7.4436158,25.4234495 7.54816312,25.3865505 C8.42144078,25.0775209 9.32239273,24.8392145 10.2318007,24.6624065 C11.4802188,24.4194877 11.3187854,23.831409 11.3887399,22.5237987 C11.3995021,22.3346911 11.6847011,20.8802533 11.4855999,20.7803183 C10.6576773,20.3675102 10.4216771,18.9884079 10.3909279,18.1689414 C10.3740158,17.705397 10.3632536,17.4509473 10.0665237,17.089644 C9.81976126,16.787533 9.62219757,16.4423731 9.45230817,16.0926008 C9.09331111,15.350776 8.66820321,14.2514916 9.07024919,13.4473997 C9.15480952,13.2759729 9.26396922,13.1145395 9.3139367,12.9300442 C9.39772832,12.6156335 9.17172159,12.3212098 9.13174763,12.0106427 C9.08024267,11.6216652 9.04641856,11.228844 8.98722631,10.8398664 C8.87652916,10.1003478 8.86653565,9.21323303 8.96262694,8.46756462 C9.06717426,7.65732285 9.73212601,6.94855348 10.2748496,6.38353667 C11.3918148,5.22352261 13.1967936,4.32180192 14.9087561,4.32180192 C15.2239355,4.32180192 15.5352713,4.35255114 15.8389198,4.41712447 C17.9144917,4.86145063 20.1422722,5.69475429 20.5996667,7.98095832 C20.7695561,8.83117405 20.7864682,9.70291426 20.6926831,10.5631235 C20.6319534,11.1212217 20.4159402,11.7100692 20.4159402,12.2673986 C20.4159402,12.7017313 20.7226636,13.0768717 20.7964617,13.48353 C20.8771783,13.9232438 20.6665462,14.6312444 20.5473931,15.057121 C20.385191,15.6390499 20.2414384,16.2386595 19.9424023,16.7690835 C19.669503,17.2541523 19.3604734,17.5232079 19.3035874,18.1166677 C19.2267144,18.9199909 19.0921865,20.2360573 18.264264,20.6504029 C18.0643941,20.7495691 18.3142314,22.3346911 18.3249937,22.5237987 C18.3957168,23.831409 18.8331244,24.4194877 20.0815425,24.6624065 C20.9909505,24.8392145 21.8911337,25.0775209 22.7644113,25.3865505 C22.8335971,25.4111498 23.1041902,25.5356842 23.4216758,25.6848179 C26.5542519,23.2218059 28.5737065,19.4065972 28.5737065,15.1117009 C28.5737065,7.68192222 22.5507043,1.65892006 15.1209256,1.65892006 Z" id="Shape"></path>
            </g>
        </g>
    </g>
</svg>