<?xml version="1.0" encoding="UTF-8"?>
<svg width="10px" height="10px" viewBox="0 0 10 10" version="1.1" xmlns="http://www.w3.org/2000/svg" xmlns:xlink="http://www.w3.org/1999/xlink">
    <!-- Generator: Sketch 48.2 (47327) - http://www.bohemiancoding.com/sketch -->
    <title>Shape</title>
    <desc>Created with Sketch.</desc>
    <defs></defs>
    <g id="11-行情" stroke="none" stroke-width="1" fill="none" fill-rule="evenodd" transform="translate(-936.000000, -317.000000)">
        <g id="箭头-上升" transform="translate(936.000000, 317.000000)" fill="#F23030" fill-rule="nonzero">
            <g id="Group-6">
                <path d="M7.81598448,3.173125 L5.40098448,1.140625 C5.17598448,0.953125 4.80848448,0.953125 4.58348448,1.140625 L2.16848448,3.173125 C1.80848448,3.480625 2.06348448,4.005625 2.57348448,4.005625 L3.49598448,4.005625 C3.49598448,4.005625 3.49598448,4.013125 3.49598448,4.013125 L3.49598448,7.763125 C3.49598448,8.175625 3.83348448,8.513125 4.24598448,8.513125 L5.74598448,8.513125 C6.15848448,8.513125 6.49598448,8.175625 6.49598448,7.763125 L6.49598448,4.013125 C6.49598448,4.013125 6.49598448,4.005625 6.49598448,4.005625 L7.41098448,4.005625 C7.92098448,4.005625 8.17598448,3.480625 7.81598448,3.173125 Z" id="Shape"></path>
            </g>
        </g>
    </g>
</svg>