<?xml version="1.0" encoding="UTF-8"?>
<svg width="30px" height="30px" viewBox="0 0 30 30" version="1.1" xmlns="http://www.w3.org/2000/svg" xmlns:xlink="http://www.w3.org/1999/xlink">
    <!-- Generator: Sketch 48.2 (47327) - http://www.bohemiancoding.com/sketch -->
    <title>icon-share</title>
    <desc>Created with Sketch.</desc>
    <defs>
        <linearGradient x1="100%" y1="82.1679688%" x2="0%" y2="12.5976562%" id="linearGradient-1">
            <stop stop-color="#42DD44" offset="0%"></stop>
            <stop stop-color="#1CC56A" offset="100%"></stop>
        </linearGradient>
    </defs>
    <g id="18-资讯-文章详情" stroke="none" stroke-width="1" fill="none" fill-rule="evenodd" transform="translate(-1074.000000, -1191.000000)">
        <g id="Group-14" transform="translate(1074.000000, 1191.000000)">
            <g id="Group-9">
                <rect id="Rectangle-21" fill="url(#linearGradient-1)" x="0" y="0" width="30" height="30" rx="4.8"></rect>
                <g id="分享" transform="translate(6.000000, 4.500000)" fill="#FFFFFF" fill-rule="nonzero">
                    <path d="M15.0140845,15.0005764 C14.1810865,15.0005764 13.4245473,15.3475505 12.8812877,15.9002882 L5.64989937,11.8737752 C5.86317905,11.4622479 5.99195168,11.0023055 5.99195168,10.5060519 C5.99195168,10.2115274 5.93561364,9.93314123 5.85915489,9.66282424 L12.9859155,5.22478388 C13.5171026,5.70489915 14.2132797,6.00345823 14.9778672,6.00345823 C16.6277666,6.00345823 17.971831,4.65590779 17.971831,3.00172913 C17.971831,1.34755046 16.6277666,0 14.9778672,0 C13.3279678,0 11.9839034,1.34755043 11.9839034,3.0017291 C11.9839034,3.34466857 12.0523139,3.66743515 12.1569417,3.9740634 L5.09456741,8.36772334 C4.55533199,7.83515849 3.81488934,7.50028818 2.99396378,7.50028818 C1.34406439,7.50028818 0,8.84783861 0,10.5020173 C0,12.1561959 1.34406439,13.5037464 2.99396378,13.5037464 C3.59356135,13.5037464 4.15291751,13.3221902 4.61971831,13.015562 L12.1327968,17.1994236 C12.0603622,17.4576369 12.0120724,17.7198847 12.0120724,17.9982709 C12.0120724,19.6524496 13.3561368,21 15.0060362,21 C16.6559356,21 18,19.6524496 18,17.9982709 C18,16.3440922 16.6639839,15.0005764 15.0140845,15.0005764 Z M14.9778672,1.50086455 C15.8028169,1.50086455 16.4748491,2.17463976 16.4748491,3.0017291 C16.4748491,3.82881845 15.8028169,4.50259365 14.9778672,4.50259365 C14.1529175,4.50259365 13.4808853,3.82881845 13.4808853,3.0017291 C13.4808853,2.17463976 14.1529175,1.50086455 14.9778672,1.50086455 Z M1.50100603,10.5060519 C1.50100603,9.67896254 2.17303821,9.00518733 2.99798792,9.00518733 C3.82293763,9.00518733 4.49496981,9.67896254 4.49496981,10.5060519 C4.49496981,11.3331412 3.82293763,12.0069164 2.99798792,12.0069164 C2.17303821,12.0069164 1.50100603,11.3331412 1.50100603,10.5060519 Z M15.0140845,19.50317 C14.1891348,19.50317 13.5171026,18.8293948 13.5171026,18.0023055 C13.5171026,17.1752161 14.1891348,16.5014409 15.0140845,16.5014409 C15.8390342,16.5014409 16.5110664,17.1752161 16.5110664,18.0023055 C16.5110664,18.8334294 15.8390342,19.50317 15.0140845,19.50317 Z" id="Shape"></path>
                </g>
            </g>
        </g>
    </g>
</svg>