<?xml version="1.0" encoding="UTF-8"?>
<svg width="30px" height="30px" viewBox="0 0 30 30" version="1.1" xmlns="http://www.w3.org/2000/svg" xmlns:xlink="http://www.w3.org/1999/xlink">
    <!-- Generator: Sketch 48.2 (47327) - http://www.bohemiancoding.com/sketch -->
    <title>Rectangle 7</title>
    <desc>Created with Sketch.</desc>
    <defs>
        <linearGradient x1="50%" y1="0%" x2="50%" y2="97.8515625%" id="linearGradient-1">
            <stop stop-color="#F2F2F2" offset="0%"></stop>
            <stop stop-color="#FFFFFF" offset="100%"></stop>
        </linearGradient>
        <rect id="path-2" x="0" y="0" width="30" height="30" rx="4"></rect>
    </defs>
    <g id="18-资讯-文章详情" stroke="none" stroke-width="1" fill="none" fill-rule="evenodd" transform="translate(-677.000000, -1192.000000)">
        <g id="Group-26" transform="translate(677.000000, 1192.000000)">
            <g id="Rectangle-7">
                <use fill="url(#linearGradient-1)" fill-rule="evenodd" xlink:href="#path-2"></use>
                <rect stroke="#CBCBCB" stroke-width="1" x="0.5" y="0.5" width="29" height="29" rx="4"></rect>
            </g>
            <g id="点赞" transform="translate(7.000000, 7.000000)" fill="#A4A4A4" fill-rule="nonzero">
                <path d="M14.9144704,6.40869757 L10.5944459,6.40869757 C12.268405,0.311415677 9.44107426,0 9.44107426,0 C8.24273465,0 8.4911546,0.934521931 8.40053122,1.09031224 C8.40053122,4.07215451 5.18918919,6.40869757 5.18918919,6.40869757 L5.18918919,14.8646971 C5.18918919,15.6993784 6.34256087,16 6.79500885,16 L13.2858323,16 C13.8967086,16 14.3941617,14.4200139 14.3941617,14.4200139 C16,9.03475661 16,7.43243102 16,7.43243102 C16.0000186,6.31979759 14.9144704,6.40869757 14.9144704,6.40869757 Z" id="Shape"></path>
                <path d="M3.21615574,6.31579207 L0.557520469,6.31579207 C0.00846030759,6.31579207 0,6.83845136 0,6.83845136 L0.549060162,15.4517797 C0.549060162,16 1.11569025,16 1.11569025,16 L3.41675845,16 C3.89613094,16 3.89189124,15.6373517 3.89189124,15.6373517 L3.89189124,6.96895886 C3.89189124,6.30742595 3.21615574,6.31579207 3.21615574,6.31579207 Z" id="Shape"></path>
            </g>
        </g>
    </g>
</svg>