<?xml version="1.0" encoding="UTF-8"?>
<svg width="16px" height="16px" viewBox="0 0 16 16" version="1.1" xmlns="http://www.w3.org/2000/svg" xmlns:xlink="http://www.w3.org/1999/xlink">
    <!-- Generator: Sketch 48.2 (47327) - http://www.bohemiancoding.com/sketch -->
    <title>btn-dianzan-on</title>
    <desc>Created with Sketch.</desc>
    <defs></defs>
    <g id="19-资讯-文章详情-分享" stroke="none" stroke-width="1" fill="none" fill-rule="evenodd" transform="translate(-967.000000, -174.000000)">
        <g id="收藏-2" transform="translate(967.000000, 174.000000)" fill-rule="nonzero">
            <path d="M8.25403942,0.00395693824 C8.33570318,0.00132570912 8.41769677,0 8.5,0 C12.6421356,0 16,3.35786438 16,7.5 C16,7.58230054 15.9986744,7.66429147 15.9960433,7.7459526 C15.9986746,7.83030654 16,7.91498958 16,7.99998218 C16,12.4182743 12.4182841,16 8,16 C3.5817337,16 0,12.4182565 0,7.99998218 C0,3.58172573 3.58175152,1.51933924e-15 8,1.51933924e-15 C8.08499592,1.49011135e-15 8.16968224,0.0013254939 8.25403942,0.00395693824 Z M8,15.3043285 C3.96594782,15.3043285 0.695690911,12.0340432 0.695690911,7.99996436 C0.695690911,3.96588553 3.96594782,0.695653723 8,0.695653723 C12.0340878,0.695653723 15.3043447,3.96590335 15.3043447,7.99998218 C15.3043447,12.034061 12.0340878,15.3043285 8,15.3043285 Z M10.1004192,4.55330665 C9.28787103,4.55330665 8.44465629,5.03869618 7.99809336,6.04210184 C7.53551112,5.00950866 6.70400349,4.52173138 5.9045345,4.52173138 L5.90435631,5.21738511 C6.67736403,5.21738511 8.00017819,7.0169971 8.00017819,7.0169971 C8.00017819,7.0169971 9.31680914,5.24899601 10.1004192,5.24899601 C10.4433822,5.24899601 10.7623608,5.38652305 10.9987839,5.63584648 C11.2929762,5.94600398 11.448376,6.40926232 11.448376,6.97553229 C11.448376,8.11514637 10.4787708,9.08526614 9.66534954,9.69799024 C9.02186842,10.183059 8.36753549,10.529888 8.00406274,10.7068129 C7.63936047,10.5298702 6.98312092,10.1833976 6.33784007,9.69934448 C5.52299324,9.08827755 4.5516418,8.12257689 4.5516418,6.99249597 C4.5516418,6.41608699 4.70921556,5.94090774 5.00764882,5.61817003 C5.24670905,5.35970545 5.56501054,5.21736729 5.90417812,5.21736729 L5.9045345,4.52171356 C4.83646132,4.52171356 3.82558725,5.39128072 3.82574762,6.99249597 C3.82574762,9.73979361 8.00445476,11.4782152 8.00445476,11.4782152 C8.00445476,11.4782152 12.1742524,9.73979361 12.1742524,6.97551447 C12.1744662,5.38481242 11.1635743,4.55330665 10.1004192,4.55330665 Z" id="Shape" fill="#D70F0F"></path>
            <path d="M7.99998915,12.1540928 C12.4439164,9.53999806 11.9866831,7.2745573 11.9866831,7.2745573 C11.9866831,7.2745573 11.9211491,5 10.0038815,5 C8.08664073,5 7.99998915,6.40310928 7.99998915,6.40310928 C7.99998915,6.40310928 7.91257192,5 5.99583857,5 C4.07883813,5 4.01333975,7.27455729 4.01333975,7.27455729 C4.01333975,7.27455729 3.55579483,9.53999806 7.99998915,12.1540928 Z" id="Shape" fill="#FFFFFF"></path>
        </g>
    </g>
</svg>