<?xml version="1.0" encoding="UTF-8"?>
<svg width="16px" height="16px" viewBox="0 0 16 16" version="1.1" xmlns="http://www.w3.org/2000/svg" xmlns:xlink="http://www.w3.org/1999/xlink">
    <!-- Generator: Sketch 48.2 (47327) - http://www.bohemiancoding.com/sketch -->
    <title>Shape</title>
    <desc>Created with Sketch.</desc>
    <defs></defs>
    <g id="18-资讯-文章详情" stroke="none" stroke-width="1" fill="none" fill-rule="evenodd" transform="translate(-1075.000000, -1375.000000)">
        <g id="Group-24" transform="translate(1058.000000, 1222.000000)" fill="#4CAFE9" fill-rule="nonzero">
            <g id="Group-22" transform="translate(0.000000, 146.000000)">
                <g id="QQ" transform="translate(17.000000, 7.000000)">
                    <polygon id="Shape" points="3.00518182 7.42409091 2.97845455 7.34072727 2.95745455 7.23254545 2.94218182 7.17336364 2.94218182 6.92963636 2.96827273 6.83354545 2.995 6.73172727 3.02936364 6.62609091 3.07581818 6.50772727 3.13754545 6.38363636 3.22472727 6.26081818 3.22472727 6.17363636 3.233 6.09345455 3.24572727 5.98336364 3.28327273 5.85990909 3.31763636 5.72627273 3.345 5.66454545 3.37681818 5.60727273 3.41754545 5.54363636 3.46145455 5.49718182 3.46145455 5.19172727 3.48754545 5.03454545 3.51363636 4.85190909 3.55945455 4.633 3.62309091 4.40645455 3.67018182 4.28045455 3.71663636 4.14490909 3.76754545 4.01763636 3.82927273 3.88209091 3.89163636 3.73318182 3.96354545 3.59318182 4.04372727 3.44490909 4.14554545 3.296 4.19263636 3.21136364 4.24290909 3.14136364 4.35172727 2.98418182 4.46372727 2.827 4.591 2.666 4.72718182 2.50881818 4.87545455 2.35354545 5.03009091 2.19445455 5.21718182 2.02263636 5.33618182 1.91890909 5.48063636 1.80627273 5.627 1.70636364 5.78609091 1.61090909 5.93818182 1.52627273 6.11 1.45627273 6.29263636 1.36909091 6.474 1.30990909 6.656 1.24881818 6.85072727 1.18709091 7.04672727 1.14 7.25227273 1.10181818 7.461 1.06809091 7.66590909 1.04009091 7.87209091 1.01272727 8.091 1 8.73818182 1 8.95390909 1.02736364 9.17090909 1.05281818 9.39172727 1.077 9.59727273 1.12536364 9.81427273 1.17181818 10.0179091 1.22463636 10.24 1.28445455 10.4442727 1.35636364 10.6396364 1.43909091 10.8477273 1.52627273 11.038 1.62172727 11.2231818 1.72736364 11.4039091 1.84445455 11.5604545 1.95263636 11.6323636 2.01436364 11.7087273 2.05890909 11.8538182 2.18236364 11.976 2.30072727 12.0969091 2.42418182 12.2165455 2.55972727 12.3145455 2.69145455 12.4297273 2.827 12.5118182 2.974 12.5939091 3.10318182 12.6810909 3.254 12.753 3.38509091 12.8758182 3.66381818 12.9356364 3.80763636 12.9827273 3.94127273 13.0291818 4.08572727 13.0711818 4.22127273 13.1010909 4.33836364 13.1386364 4.47581818 13.2054545 4.72209091 13.2474545 4.93654545 13.2748182 5.14463636 13.299 5.312 13.3359091 5.56654545 13.3448182 5.60727273 13.3747273 5.65436364 13.4555455 5.78609091 13.5070909 5.87454545 13.5529091 5.96809091 13.6120909 6.06736364 13.6636364 6.187 13.6973636 6.30981818 13.733 6.44345455 13.761 6.58154545 13.7743636 6.649 13.7851818 6.73172727 13.7851818 6.80427273 13.7743636 6.87681818 13.7743636 6.96590909 13.7527273 7.05245455 13.7145455 7.21981818 13.67 7.30509091 13.6381818 7.40054545 13.6381818 7.42409091 13.6528182 7.454 13.6973636 7.524 13.8882727 7.80590909 14.0397273 8.01781818 14.1116364 8.16036364 14.209 8.315 14.2942727 8.48490909 14.3916364 8.66754545 14.489 8.87118182 14.5990909 9.10218182 14.6614545 9.24472727 14.7180909 9.38281818 14.7677273 9.52918182 14.8154545 9.66027273 14.8517273 9.799 14.8892727 9.92818182 14.937 10.1808182 14.9745455 10.4398182 15 10.6682727 15 10.9915455 14.9828182 11.1060909 14.958 11.304 14.9242727 11.4815455 14.8714545 11.6425455 14.8517273 11.7087273 14.8154545 11.787 14.7842727 11.8423636 14.7435455 11.9104545 14.7072727 11.9530909 14.6614545 12.0078182 14.6200909 12.0523636 14.5761818 12.0905455 14.5233636 12.1134545 14.4762727 12.137 14.4380909 12.1497273 14.3789091 12.1497273 14.3400909 12.137 14.2681818 12.1013636 14.2344545 12.0778182 14.2000909 12.0523636 14.1625455 12.0186364 14.1243636 11.9804545 14.0607273 11.9104545 13.9856364 11.8105455 13.9264545 11.7087273 13.8679091 11.626 13.81 11.5305455 13.7291818 11.3606364 13.6381818 11.1843636 13.6273636 11.178 13.6120909 11.178 13.5745455 11.2053636 13.5529091 11.2524545 13.5179091 11.3097273 13.4555455 11.4815455 13.362 11.7259091 13.2417273 12.0186364 13.1513636 12.165 13.0565455 12.3177273 12.9445455 12.4895455 12.8249091 12.6575455 12.7638182 12.7339091 12.69 12.8166364 12.5194545 12.984 12.5347273 12.9986364 12.5576364 13.0228182 12.6429091 13.0730909 12.9967273 13.243 13.1513636 13.3301818 13.299 13.4148182 13.4447273 13.5210909 13.5745455 13.6318182 13.6381818 13.6801818 13.6852727 13.7374545 13.733 13.803 13.7743636 13.8755455 13.796 13.9347273 13.8227273 14.0072727 13.8335455 14.0683636 13.8462727 14.1409091 13.8335455 14.1892727 13.8335455 14.2382727 13.8227273 14.2891818 13.796 14.3356364 13.7851818 14.3725455 13.761 14.4164545 13.6973636 14.5036364 13.6381818 14.5736364 13.5917273 14.6264545 13.5529091 14.6646364 13.4555455 14.7371818 13.3448182 14.7989091 13.2264545 14.8580909 13.1010909 14.9153636 12.9591818 14.9707273 12.8840909 14.9936364 12.8166364 15.0127273 12.6537273 15.0515455 12.4838182 15.0871818 12.3145455 15.1228182 12.13 15.1533636 11.9384545 15.1616364 11.7430909 15.1851818 11.1366364 15.1851818 10.9177273 15.1724545 10.7134545 15.1533636 10.4945455 15.1228182 10.2769091 15.0999091 10.0471818 15.0680909 9.82445455 15.0127273 9.60809091 14.9707273 9.39172727 14.909 9.17090909 14.8300909 8.95390909 14.7645455 8.84 14.727 8.73818182 14.6900909 8.67390909 14.6646364 8.61027273 14.6519091 8.43018182 14.6519091 8.22209091 14.6372727 8.11645455 14.6264545 7.98027273 14.6118182 7.89372727 14.6900909 7.77409091 14.7645455 7.61309091 14.8434545 7.43490909 14.9408182 7.32672727 14.9936364 7.21345455 15.0362727 6.96336364 15.1380909 6.82781818 15.1724545 6.68590909 15.2106364 6.488 15.2488182 6.36454545 15.2583636 6.23345455 15.2698182 6.09727273 15.2844545 5.93818182 15.2914545 5.28972727 15.2914545 4.92318182 15.2844545 4.56745455 15.2488182 4.38672727 15.2233636 4.213 15.1972727 4.04372727 15.1724545 3.87381818 15.1380909 3.71663636 15.0871818 3.55945455 15.0515455 3.41754545 14.9936364 3.28327273 14.9408182 3.15854545 14.881 3.051 14.8154545 2.94218182 14.7371818 2.90590909 14.699 2.85754545 14.6519091 2.82063636 14.6118182 2.78754545 14.5653636 2.75763636 14.5182727 2.73409091 14.4718182 2.70036364 14.3725455 2.68763636 14.321 2.673 14.2637273 2.673 14.2109091 2.68763636 14.1517273 2.68763636 14.0912727 2.70036364 14.0320909 2.70036364 13.9130909 2.70609091 13.8500909 2.73409091 13.7775455 2.75763636 13.7056364 2.80027273 13.6184545 2.83145455 13.5847273 2.85754545 13.5465455 2.925 13.4638182 2.97845455 13.4211818 3.02936364 13.3912727 3.07581818 13.3530909 3.15027273 13.3301818 3.20945455 13.2939091 3.28327273 13.2557273 3.36854545 13.2309091 3.45318182 13.2048182 3.55118182 13.1831818 3.64409091 13.1704545 3.75481818 13.1558182 3.87381818 13.1475455 3.90563636 13.1367273 3.912 13.1367273 3.92727273 13.124 3.92727273 13.1093636 3.90563636 13.0794545 3.842 13.0501818 3.68290909 12.9120909 3.57663636 12.8268182 3.45318182 12.7192727 3.32845455 12.5983636 3.19863636 12.4430909 3.051 12.2693636 2.995 12.1758182 2.92054545 12.0778182 2.85754545 11.9651818 2.80027273 11.8423636 2.72327273 11.7259091 2.673 11.5916364 2.61318182 11.458 2.55336364 11.3097273 2.50945455 11.1678182 2.46872727 10.9915455 2.456 10.9845455 2.44327273 10.9845455 2.43754545 10.9718182 2.42227273 10.9718182 2.39681818 10.9845455 2.38409091 10.9915455 2.36690909 11.0208182 2.36054545 11.0570909 2.34718182 11.0889091 2.32490909 11.1417273 2.25172727 11.2715455 2.21418182 11.3498182 2.15436364 11.4179091 2.09072727 11.5006364 2.02136364 11.5916364 1.94690909 11.6724545 1.86036364 11.7513636 1.77890909 11.8251818 1.69045455 11.8830909 1.59245455 11.9441818 1.49954545 11.9804545 1.38881818 12.0078182 1.28063636 12.0186364 1.25454545 12.0186364 1.22972727 12.0078182 1.21063636 11.9651818 1.17818182 11.9441818 1.13681818 11.8423636 1.11072727 11.787 1.08272727 11.7087273 1.05981818 11.626 1.04772727 11.5451818 1.01272727 11.3606364 1 11.2524545 1 10.8954545 1.01272727 10.6307273 1.03436364 10.4951818 1.05981818 10.3545455 1.08272727 10.2043636 1.12345455 10.0637273 1.16990909 9.90272727 1.217 9.74554545 1.28063636 9.58390909 1.33981818 9.42927273 1.42190909 9.27272727 1.49954545 9.10218182 1.59245455 8.94372727 1.70318182 8.77127273 1.81518182 8.61663636 1.93227273 8.44481818 2.02963636 8.32581818 2.15436364 8.18772727 2.28609091 8.05027273 2.34718182 7.98409091 2.42227273 7.90963636 2.52981818 7.81609091 2.64054545 7.72127273 2.82063636 7.55963636 2.95745455 7.46036364"></polygon>
                </g>
            </g>
        </g>
    </g>
</svg>