<?xml version="1.0" encoding="UTF-8"?>
<svg width="16px" height="16px" viewBox="0 0 16 16" version="1.1" xmlns="http://www.w3.org/2000/svg" xmlns:xlink="http://www.w3.org/1999/xlink">
    <!-- Generator: Sketch 48.2 (47327) - http://www.bohemiancoding.com/sketch -->
    <title>微博-2</title>
    <desc>Created with Sketch.</desc>
    <defs></defs>
    <g id="18-资讯-文章详情" stroke="none" stroke-width="1" fill="none" fill-rule="evenodd" transform="translate(-1075.000000, -1406.000000)">
        <g id="Group-24" transform="translate(1058.000000, 1222.000000)">
            <g id="Group-3">
                <g id="Group-23" transform="translate(0.000000, 176.000000)">
                    <rect id="Rectangle-17" x="0" y="0" width="139" height="30"></rect>
                    <g id="微博-2" transform="translate(18.000000, 10.000000)" fill="#EA5D5C" fill-rule="nonzero">
                        <path d="M13.0355313,1.23774198 C12.1207787,0.208645309 10.7486498,-0.172501613 9.52897966,0.094301229 C9.22406213,0.17053061 9.07160335,0.437333452 9.10971805,0.742250994 C9.18594743,1.04716852 9.45275027,1.1996273 9.7576678,1.1615126 C10.6343057,0.970939137 11.6252877,1.23774198 12.2732374,1.96192112 C12.9211872,2.68610027 13.1117607,3.67708224 12.8068431,4.55372013 C12.7687284,4.7061789 12.7687284,4.82052298 12.8449578,4.97298174 C12.9211872,5.08732582 13.0355313,5.20166988 13.1498754,5.23978458 C13.4166782,5.31601396 13.7215957,5.1635552 13.8359398,4.89675236 C14.178972,3.63896754 13.9502839,2.26683865 13.0355313,1.23774198 Z" id="Shape"></path>
                        <path d="M11.3965995,4.59183483 C11.6252877,4.66806421 11.8920905,4.55372013 11.9683199,4.28691729 C12.1588934,3.67708223 12.0445493,3.02913248 11.587173,2.53364149 C11.1297967,2.03815051 10.4818469,1.84757704 9.87201188,1.96192112 C9.60520904,2.00003582 9.45275027,2.26683865 9.52897966,2.49552679 C9.56709435,2.76232963 9.83389718,2.9147884 10.0625853,2.83855902 C10.3675029,2.76232963 10.6724204,2.87667372 10.9011085,3.10536186 C11.1297967,3.33405 11.1679114,3.67708223 11.091682,3.98199977 C11.0154526,4.24880261 11.1679114,4.51560545 11.3965995,4.59183483 Z M10.4818469,5.46847274 C10.2912735,5.39224336 10.1388147,5.35412866 10.2531588,5.12544052 C10.4818469,4.55372015 10.4818469,4.05822915 10.2531588,3.71519692 C9.7957825,3.06724718 8.53799768,3.10536186 7.12775409,3.71519692 C7.12775409,3.71519692 6.67037779,3.90577039 6.78472187,3.56273816 C7.01341001,2.83855902 6.97529533,2.26683865 6.63226311,1.92380643 C5.86996928,1.1615126 3.81177594,1.96192112 2.05850012,3.71519692 C0.76260061,5.04921114 0.000306781858,6.42134003 0.000306781858,7.64101014 C0.000306781858,9.96600633 2.97325271,11.3762499 5.86996928,11.3762499 C9.68143843,11.3762499 12.1970081,9.16559782 12.1970081,7.412322 C12.1970081,6.34511063 11.2822555,5.73527558 10.4818469,5.46847274 Z M5.86996928,10.5377267 C3.5449731,10.7664149 1.56300914,9.6992035 1.41055037,8.21273053 C1.25809161,6.68814287 3.01136741,5.27789928 5.33636359,5.04921114 C7.66135978,4.82052299 9.64332374,5.88773434 9.7957825,7.3742073 C9.94824126,8.89879496 8.19496546,10.3090385 5.86996928,10.5377267 Z" id="Shape"></path>
                        <path d="M6.09865742,6.19265187 C4.99333137,5.88773434 3.73554656,6.45945471 3.27817025,7.412322 C2.78267927,8.40330397 3.27817025,9.50863004 4.3834963,9.85166226 C5.52693706,10.2328092 6.89906595,9.6610888 7.35644224,8.59387743 C7.81381854,7.56478076 7.24209816,6.49756939 6.09865742,6.19265187 Z M5.26013421,8.74633619 C5.03144607,9.08936842 4.57406977,9.27994188 4.19292284,9.08936842 C3.84989062,8.93690966 3.73554654,8.51764805 3.9642347,8.17461583 C4.19292284,7.8315836 4.65029915,7.67912484 4.99333137,7.8315836 C5.37447829,7.94592768 5.48882236,8.36518929 5.26013421,8.74633619 Z" id="Shape"></path>
                    </g>
                </g>
            </g>
        </g>
    </g>
</svg>