<?xml version="1.0" encoding="UTF-8"?>
<svg width="16px" height="16px" viewBox="0 0 16 16" version="1.1" xmlns="http://www.w3.org/2000/svg" xmlns:xlink="http://www.w3.org/1999/xlink">
    <!-- Generator: Sketch 48.2 (47327) - http://www.bohemiancoding.com/sketch -->
    <title>微信-2</title>
    <desc>Created with Sketch.</desc>
    <defs></defs>
    <g id="18-资讯-文章详情" stroke="none" stroke-width="1" fill="none" fill-rule="evenodd" transform="translate(-1077.000000, -1249.000000)">
        <g id="Group-24" transform="translate(1058.000000, 1222.000000)" fill="#50B674" fill-rule="nonzero">
            <g id="Group-21" transform="translate(0.000000, 20.000000)">
                <g id="Group-20">
                    <g id="微信" transform="translate(19.000000, 7.000000)">
                        <g id="微信-2" transform="translate(1.000000, 2.000000)">
                            <path d="M9.75923716,3.49703414 C9.82804082,3.49703414 9.89642269,3.49856519 9.96447646,3.50111174 C9.53107895,1.51660075 7.48560702,0.0139185649 5.02731307,0.0139185649 C2.25365333,0.0139185649 0.00517621374,1.92676687 0.00517621374,4.28635473 C0.00517621374,5.6649591 0.772905832,6.89081742 1.96425296,7.67202969 L1.46248922,9.15205853 L3.12399478,8.24095669 C3.71102882,8.44564918 4.35358701,8.5587909 5.02729744,8.5587909 C5.15717139,8.5587909 5.28588925,8.55460394 5.41326354,8.54635499 C5.27271907,8.17413713 5.1965726,7.7774849 5.1965726,7.36572524 C5.19660385,5.2291244 7.23935736,3.49703414 9.75923716,3.49703414 Z M6.76046568,2.12596006 C7.17005376,2.12596006 7.5021049,2.45799559 7.5021049,2.86759928 C7.5021049,3.27718736 7.17006937,3.6092385 6.76046568,3.6092385 C6.35086198,3.6092385 6.01882646,3.27720298 6.01882646,2.86759928 C6.01884209,2.45799559 6.35087762,2.12596006 6.76046568,2.12596006 Z M3.31026776,3.60922287 C2.90067968,3.60922287 2.56862853,3.27718734 2.56862853,2.86758365 C2.56862853,2.45799557 2.90066406,2.12594443 3.31026776,2.12594443 C3.71987145,2.12594443 4.05190698,2.45797995 4.05190698,2.86758365 C4.05190698,3.27717173 3.71987145,3.60922287 3.31026776,3.60922287 Z" id="Shape"></path>
                            <path d="M13.9994431,7.36574087 C13.9994431,5.38010502 12.1010461,3.77043656 9.75923716,3.77043656 C7.41742826,3.77043656 5.51904685,5.38010502 5.51904685,7.36574087 C5.51904685,9.35137672 7.41744389,10.9610452 9.75925279,10.9610452 C10.2509553,10.9610452 10.7229729,10.8898356 11.1621197,10.7593367 L12.6118868,11.5543128 L12.1905346,10.3114567 C13.2842536,9.66122759 13.9994431,8.58436576 13.9994431,7.36574087 Z M8.43446965,6.84982269 C8.10652736,6.84982269 7.84068646,6.5839818 7.84068646,6.2560395 C7.84068646,5.92809721 8.10652734,5.66225631 8.43446965,5.66225631 C8.76241194,5.66225631 9.02825284,5.92809719 9.02825284,6.2560395 C9.02825282,6.5839818 8.76241194,6.84982269 8.43446965,6.84982269 Z M11.1968808,6.84982269 C10.8689385,6.84982269 10.6030976,6.5839818 10.6030976,6.2560395 C10.6030976,5.92809721 10.8689385,5.66225631 11.1968808,5.66225631 C11.5248231,5.66225631 11.790664,5.92809719 11.790664,6.2560395 C11.790664,6.5839818 11.5248075,6.84982269 11.1968808,6.84982269 Z" id="Shape"></path>
                        </g>
                    </g>
                </g>
            </g>
        </g>
    </g>
</svg>