<?xml version="1.0" encoding="UTF-8"?>
<svg width="16px" height="16px" viewBox="0 0 16 16" version="1.1" xmlns="http://www.w3.org/2000/svg" xmlns:xlink="http://www.w3.org/1999/xlink">
    <!-- Generator: Sketch 48.2 (47327) - http://www.bohemiancoding.com/sketch -->
    <title>编辑</title>
    <desc>Created with Sketch.</desc>
    <defs></defs>
    <g id="02-我的会员-我的收藏" stroke="none" stroke-width="1" fill="none" fill-rule="evenodd" transform="translate(-596.000000, -115.000000)">
        <g id="编辑" transform="translate(596.000000, 115.000000)" fill="#061D9A" fill-rule="nonzero">
            <g id="Group-3">
                <path d="M12.2670659,15.005988 L2.60958084,15.005988 C1.72216527,15.005988 1,14.2838228 1,13.3964072 L1,2.66586826 C1,1.77845269 1.72216527,1.05628743 2.60958084,1.05628743 L10.1209581,1.05628743 C10.4176575,1.05628743 10.657485,1.2966515 10.657485,1.59281437 C10.657485,1.88897725 10.4176575,2.12934132 10.1209581,2.12934132 L2.60958084,2.12934132 C2.31395449,2.12934132 2.07305389,2.37024192 2.07305389,2.66586826 L2.07305389,13.3964072 C2.07305389,13.6925701 2.31395449,13.9329341 2.60958084,13.9329341 L12.2670659,13.9329341 C12.5632287,13.9329341 12.8035928,13.6925701 12.8035928,13.3964072 L12.8035928,4.81197605 C12.8035928,4.51581317 13.0434204,4.2754491 13.3401198,4.2754491 C13.6368192,4.2754491 13.8766467,4.51581317 13.8766467,4.81197605 L13.8766467,13.3964072 C13.8766467,14.2838228 13.1544814,15.005988 12.2670659,15.005988 Z M9.11497006,6.42155689 C8.97761916,6.42155689 8.84026826,6.36897725 8.73564551,6.26435449 C8.52586347,6.05457246 8.52586347,5.71548743 8.73564551,5.50570539 L14.0676503,0.173700599 C14.2774323,-0.0360814371 14.6165174,-0.0360814371 14.8262994,0.173700599 C15.0360814,0.383482635 15.0360814,0.722567665 14.8262994,0.932349701 L9.49429461,6.26435449 C9.38967186,6.36951377 9.25232096,6.42155689 9.11497006,6.42155689 Z M6.90179641,6.42155689 L3.68263473,6.42155689 C3.38647186,6.42155689 3.14610778,6.18119281 3.14610778,5.88502994 C3.14610778,5.58886707 3.38647186,5.34850299 3.68263473,5.34850299 L6.90179641,5.34850299 C7.19795928,5.34850299 7.43832335,5.58886707 7.43832335,5.88502994 C7.43832335,6.18119281 7.19795928,6.42155689 6.90179641,6.42155689 Z M10.1209581,9.64071856 L3.68263473,9.64071856 C3.38647186,9.64071856 3.14610778,9.40089102 3.14610778,9.10419162 C3.14610778,8.80749222 3.38647186,8.56766467 3.68263473,8.56766467 L10.1209581,8.56766467 C10.4176575,8.56766467 10.657485,8.80749222 10.657485,9.10419162 C10.657485,9.40089102 10.4176575,9.64071856 10.1209581,9.64071856 Z" id="Shape"></path>
            </g>
        </g>
    </g>
</svg>