<?xml version="1.0" encoding="UTF-8"?>
<svg width="16px" height="16px" viewBox="0 0 16 16" version="1.1" xmlns="http://www.w3.org/2000/svg" xmlns:xlink="http://www.w3.org/1999/xlink">
    <!-- Generator: Sketch 48.2 (47327) - http://www.bohemiancoding.com/sketch -->
    <title>icon-dianzan</title>
    <desc>Created with Sketch.</desc>
    <defs></defs>
    <g id="14-资讯-新闻热点" stroke="none" stroke-width="1" fill="none" fill-rule="evenodd" transform="translate(-597.000000, -1056.000000)">
        <g id="Group-13" transform="translate(424.000000, 806.000000)" fill="#ADADAD" fill-rule="nonzero" stroke="#AAAAAA" stroke-width="0.2">
            <g id="Group-3">
                <g id="Group-8" transform="translate(173.000000, 250.000000)">
                    <g id="点赞-2">
                        <path d="M14.9417176,8.77897748 C14.8792935,8.42144178 14.7362596,8.09182269 14.5167044,7.79934403 C14.2971982,7.50694712 14.0204359,7.27780831 13.6941204,7.11832206 C13.3829325,6.96621157 13.0349967,6.88581428 12.6879931,6.88581428 L10.4119779,6.88581428 C10.7679272,5.68306036 10.9345112,4.63207349 10.9072978,3.75965823 C10.8840912,3.0161959 10.7209743,2.39784328 10.42251,1.92185404 C9.92099184,1.12205146 9.21798984,1.00621461 9.18829059,1.00166813 L9.1774314,1 L9.16647409,1 C8.71254667,1 8.39723753,1.12820064 8.22929616,1.38102036 C8.08750516,1.5944755 8.08479036,1.84512008 8.08297504,2.01098448 C8.08246807,2.05767574 8.08197743,2.10179939 8.07828138,2.12798249 L8.07682586,2.13807304 L8.07682586,2.14827807 C8.07682586,4.36195103 5.77493829,6.1972694 4.78150188,6.88581428 L1.67999163,6.88581428 C1.30502233,6.88581428 1,7.19085298 1,7.56580592 L1,15.3004471 C1,15.6754164 1.30502235,15.9804551 1.67999163,15.9804551 L11.7524997,15.9804551 C12.0177486,15.9804551 12.2704375,15.8961656 12.4833693,15.7366139 C12.694404,15.5780271 12.8449118,15.3607288 12.9189473,15.1079418 L14.8818284,9.82054434 L14.8851483,9.81045379 C14.981769,9.47708959 15.0013123,9.12033888 14.9417176,8.77897748 Z M1.58875151,15.3004635 L1.58875151,7.56582228 C1.58875151,7.51636716 1.63053651,7.47458216 1.67999163,7.47458216 L4.19672446,7.47458216 L4.19672446,15.39172 L1.67999163,15.39172 C1.63052016,15.39172 1.58875151,15.3499023 1.58875151,15.3004635 Z M14.3238556,9.63193124 L12.3670254,14.9030562 C12.3622009,14.9160578 12.357818,14.9292393 12.3539257,14.9425189 C12.3153461,15.0743175 12.2399205,15.1830893 12.1298076,15.2658744 C12.0181084,15.3493462 11.891167,15.3917036 11.7525161,15.3917036 L4.78545962,15.3917036 L4.78545962,7.47443497 C4.9039295,7.47363361 5.01947198,7.43726185 5.116894,7.36971896 C6.18011382,6.63279832 8.64802932,4.6550021 8.66547926,2.17470645 C8.67054907,2.12294539 8.6711051,2.07146234 8.67169385,2.01736261 C8.67280594,1.91513245 8.67434324,1.77510771 8.71972616,1.7068289 C8.76489649,1.63884445 8.91710511,1.59491705 9.1220724,1.58938932 C9.2311059,1.61794378 9.61981274,1.74993859 9.92373936,2.23464463 C10.1659943,2.62101281 10.2989213,3.14029163 10.3188407,3.77802401 C10.3440752,4.58711578 10.1854721,5.57652904 9.84743062,6.71875604 C9.79473735,6.89683701 9.82914662,7.08935876 9.94028982,7.23814936 C10.0514494,7.38693995 10.2262595,7.47458216 10.4120106,7.47458216 L12.6880258,7.47458216 C12.9459481,7.47458216 13.2044754,7.53429137 13.4356421,7.64729896 C13.6775209,7.76552354 13.8828643,7.9356073 14.0458994,8.15280755 C14.2091799,8.37035124 14.3154659,8.61510833 14.3617646,8.88024276 C14.405136,9.12884306 14.3920199,9.38840071 14.3238556,9.63193124 Z" id="Shape"></path>
                    </g>
                </g>
            </g>
        </g>
    </g>
</svg>