<?xml version="1.0" encoding="UTF-8"?>
<svg width="16px" height="16px" viewBox="0 0 16 16" version="1.1" xmlns="http://www.w3.org/2000/svg" xmlns:xlink="http://www.w3.org/1999/xlink">
    <!-- Generator: Sketch 48.2 (47327) - http://www.bohemiancoding.com/sketch -->
    <title>icon-yulan</title>
    <desc>Created with Sketch.</desc>
    <defs></defs>
    <g id="14-资讯-新闻热点" stroke="none" stroke-width="1" fill="none" fill-rule="evenodd" transform="translate(-444.000000, -1057.000000)">
        <g id="Group-13" transform="translate(424.000000, 806.000000)" fill-rule="nonzero">
            <g id="Group-3">
                <g id="Group-11" transform="translate(20.000000, 250.000000)">
                    <g id="浏览" transform="translate(0.000000, 1.000000)">
                        <path d="M15.9254875,7.6648743 C15.327124,6.01684392 14.2700789,4.60902842 12.8731043,3.59280174 C11.441214,2.55256348 9.75785364,2 8,2 C6.24214636,2 4.55880519,2.55014846 3.12689567,3.59280174 C1.72758055,4.61142364 0.67287604,6.01921935 0.0745124747,7.6648743 L0,7.86666667 L0.0745124747,8.06845903 C0.67287604,9.71648941 1.72992106,11.1243049 3.12689567,12.1405316 C4.55878601,13.1807699 6.24214636,13.7333333 8,13.7333333 C9.75785364,13.7333333 11.4411948,13.1831849 12.8731043,12.1405316 C14.2724194,11.1219097 15.327124,9.71411398 15.9254875,8.06845903 L16,7.86666667 L15.9254875,7.6648743 Z M8,12.5825784 C5.0244506,12.5825784 2.31898015,10.6967086 1.19674631,7.86906189 C2.31663965,5.03903975 5.0244506,3.15554536 8,3.15554536 C10.9755494,3.15554536 13.6810198,5.04141518 14.8032537,7.86906189 C13.6810198,10.6967086 10.9732089,12.5825784 8,12.5825784 Z" id="Shape" fill="#ADADAD"></path>
                        <path d="M8,5.2 C6.53016806,5.2 5.33333333,6.39685203 5.33333333,7.86666667 C5.33333333,9.3364813 6.53018536,10.5333333 8,10.5333333 C9.46981464,10.5333333 10.6666667,9.3364813 10.6666667,7.86666667 C10.6666667,6.39685203 9.46981464,5.2 8,5.2 Z M8,9.5254634 C7.08451901,9.5254634 6.34120326,8.78216495 6.34120326,7.86666667 C6.34120326,6.95116838 7.08450171,6.20786993 8,6.20786993 C8.91549829,6.20786993 9.65879674,6.95116838 9.65879674,7.86666667 C9.65879674,8.78216495 8.91338753,9.5254634 8,9.5254634 Z" id="Shape" fill="#AAAAAA"></path>
                    </g>
                </g>
            </g>
        </g>
    </g>
</svg>