<?xml version="1.0" encoding="UTF-8"?>
<svg width="16px" height="16px" viewBox="0 0 16 16" version="1.1" xmlns="http://www.w3.org/2000/svg" xmlns:xlink="http://www.w3.org/1999/xlink">
    <!-- Generator: Sketch 48.2 (47327) - http://www.bohemiancoding.com/sketch -->
    <title>icon-pinglun</title>
    <desc>Created with Sketch.</desc>
    <defs></defs>
    <g id="14-资讯-新闻热点" stroke="none" stroke-width="1" fill="none" fill-rule="evenodd" transform="translate(-521.000000, -1057.000000)">
        <g id="Group-13" transform="translate(424.000000, 806.000000)" fill-rule="nonzero">
            <g id="Group-3">
                <g id="Group-9" transform="translate(97.000000, 250.000000)">
                    <g id="评论" transform="translate(0.000000, 1.000000)">
                        <path d="M3.79089738,5.89869955 C3.26939157,5.89869955 2.84662808,6.33713046 2.84662808,6.87818632 C2.84662808,7.4193106 3.26939157,7.85777571 3.79089738,7.85777571 C4.31233477,7.85777571 4.73509827,7.4193106 4.73509827,6.87818632 C4.73509827,6.33714756 4.31233477,5.89869955 3.79089738,5.89869955 Z" id="Shape" fill="#ADADAD"></path>
                        <path d="M7.56792329,5.89869955 C7.04641748,5.89869955 6.62363688,6.33713046 6.62363688,6.87818632 C6.62363688,7.4193106 7.0464859,7.85777571 7.56792329,7.85777571 C8.08936068,7.85777571 8.51214128,7.4193106 8.51214128,6.87818632 C8.51214128,6.33714756 8.08936068,5.89869955 7.56792329,5.89869955 Z" id="Shape" fill="#ADADAD"></path>
                        <path d="M11.3449663,5.89869955 C10.8234263,5.89869955 10.4006799,6.33713046 10.4006799,6.87818632 C10.4006799,7.4193106 10.8234263,7.85777571 11.3449663,7.85777571 C11.8664037,7.85777571 12.2891501,7.4193106 12.2891501,6.87818632 C12.2891501,6.33714756 11.8664037,5.89869955 11.3449663,5.89869955 Z" id="Shape" fill="#ADADAD"></path>
                        <path d="M13.2334365,1.00131702 L1.90234167,1.00131702 C0.859466885,1.00131702 0.0138714729,1.87853802 0.0138714729,2.96041029 L0.0138714729,10.3064242 C0.0138714729,11.3883649 0.87836698,12.3856058 1.94527311,12.3856058 L4.82316758,12.3856058 C5.32483257,12.9200252 7.40103801,15.0694536 7.40103801,15.0694536 C7.49321232,15.1653395 7.64261715,15.1653395 7.73480857,15.0694536 C7.73480857,15.0694536 9.25485518,13.3459701 10.2452715,12.3856058 L13.1904879,12.3856058 C14.257377,12.3856058 15.1218896,11.3882965 15.1218896,10.3064242 L15.1218896,2.96039318 C15.1219067,1.87852092 14.2763797,1.00131702 13.2334365,1.00131702 Z M14.1870618,10.3097595 C14.1870618,10.8514311 13.7326898,11.4198023 13.1984585,11.4198023 L10.2979865,11.4198023 C9.94661578,11.4198023 9.63077038,11.7810935 9.63077038,11.7810935 L7.59424659,13.8933716 L5.55808198,11.7810935 C5.55808198,11.7810935 5.17022807,11.4198023 4.83779164,11.4198023 L1.93733678,11.4198023 C1.40308837,11.4198023 0.948819011,10.8514311 0.948819011,10.3097595 L0.948819011,2.95338048 C0.948819011,2.41157203 1.37216405,1.97240565 1.89433692,1.97240565 L13.2414241,1.97240565 C13.7636141,1.97240565 14.1870618,2.41157203 14.1870618,2.95338048 L14.1870618,10.3097595 Z" id="Shape" fill="#AAAAAA"></path>
                    </g>
                </g>
            </g>
        </g>
    </g>
</svg>