<?xml version="1.0" encoding="UTF-8"?>
<svg width="60px" height="60px" viewBox="0 0 60 60" version="1.1" xmlns="http://www.w3.org/2000/svg" xmlns:xlink="http://www.w3.org/1999/xlink">
    <!-- Generator: Sketch 48.2 (47327) - http://www.bohemiancoding.com/sketch -->
    <title>main-icon-download</title>
    <desc>Created with Sketch.</desc>
    <defs></defs>
    <g id="01-首页" stroke="none" stroke-width="1" fill="none" fill-rule="evenodd" transform="translate(-1275.000000, -1601.000000)">
        <g id="Group-12" transform="translate(1275.000000, 1601.000000)">
            <g id="Group-9">
                <circle id="Oval-5" fill="#3AB702" cx="30" cy="30" r="30"></circle>
                <path d="M25.6802436,26.7936113 C25.2721612,26.7936113 25,27.0635039 25,27.4681848 C25,27.6706043 25.0680403,27.8055506 25.2041209,27.9403388 L29.2857023,31.9880567 C29.4217829,32.123003 29.5578636,32.1904762 29.761825,32.1904762 C29.965946,32.1904762 30.1020266,32.123003 30.2381072,31.9880567 L34.3196487,27.9403388 C34.4557692,27.8055506 34.5238095,27.6706043 34.5238095,27.4681848 C34.5238095,27.0635039 34.2516084,26.7936113 33.843526,26.7936113 C33.6394051,26.7936113 33.5033245,26.8610844 33.3674033,26.9960308 L30.4422281,29.8968234 L30.4422281,16.6746131 C30.4422281,16.2698927 30.1700669,16 29.761825,16 C29.3537426,16 29.0815415,16.2698927 29.0815415,16.6746131 L29.0815415,29.8968234 L26.1564062,26.9960308 C26.020485,26.8610844 25.8844044,26.7936113 25.6802436,26.7936113 Z M44.9318049,32.7539494 L38.1135759,19.2619825 C37.9773056,18.9920894 37.7727204,18.8571429 37.4999401,18.8571429 L32.7272836,18.8571429 C32.3181132,18.8571429 32.0454927,19.127036 32.0454927,19.5317175 C32.0454927,19.9365967 32.3181132,20.2063316 32.7272836,20.2063316 L37.0909294,20.2063316 L43.2272077,32.3492678 L34.7727364,32.3492678 C34.363526,32.3492678 34.0909055,32.6190028 34.0909055,33.0238425 C34.0909055,35.2500652 32.2499181,37.0714088 29.9999201,37.0714088 C27.7500419,37.0714088 25.9090546,35.2500652 25.9090546,33.0238425 C25.9090546,32.6190028 25.6362743,32.3492678 25.2272636,32.3492678 L16.7727923,32.3492678 L22.9090706,20.2063316 L27.2726764,20.2063316 C27.6818469,20.2063316 27.9545073,19.9365967 27.9545073,19.5317175 C27.9545073,19.127036 27.6818469,18.8571429 27.2726764,18.8571429 L22.50002,18.8571429 C22.2272397,18.8571429 22.0226545,18.9920894 21.8864241,19.2619825 L15.0681951,32.7539494 C15,32.8214226 15,32.8888959 15,33.0238425 L15,42.4682825 C15,42.872964 15.2727803,43.1428571 15.6817909,43.1428571 L44.3181691,43.1428571 C44.7271798,43.1428571 45,42.872964 45,42.4682825 L45,33.0238425 C45,32.8888959 45,32.8214226 44.9318049,32.7539494 Z M43.5714286,41.7142857 L16.4285714,41.7142857 L16.4285714,33.6190476 L24.6393227,33.6190476 C24.978515,36.2499209 27.2856666,38.341204 29.9999205,38.341204 C32.7821639,38.341204 35.021485,36.2499209 35.3606773,33.6190476 L43.5714286,33.6190476 L43.5714286,41.7142857 Z" id="下载" fill="#FFFFFF"></path>
            </g>
        </g>
    </g>
</svg>